# xmcd
#
# Track frame offsets:
#	150
#	11475
#	22500
#	34725
#	46875
#	58200
#	70575
#	81825
#	94200
#	103950
#	115950
#	126375
#	137850
#	150600
#	163275
#	176025
#	187650
#	198450
#	211050
#	224400
#	236100
#	246375
#	258825
#	270150
#	282450
#	294825
#	306450
#	320400
#
# Disc length: 4431 seconds
#
# Revision: 0
# Processed by: cddbd v1.5.2PL0 Copyright (c) Steve Scherf et al.
# Submitted via: audiograbber 1.83.01
#
DISCID=9a114d1c
DTITLE=Various Artist - Anna Records
DYEAR=1900
DGENRE=
TTITLE0=Voice Masters - Hope And Pray
TTITLE1=Voice Masters - Oops Im Sorry
TTITLE2=Voice Masters - Needed
TTITLE3=Voice Masters - Needed (For Lovers Only)
TTITLE4=Hill Sisters - Hit And Run Away Love
TTITLE5=Bob Kayli - Peppermint (You Know What To Do)
TTITLE6=Wreg Tracey - All I Want Is You
TTITLE7=Paul Gayten - THe Hunch
TTITLE8=Johnny And Jackey - Lonely And Blue
TTITLE9=Falcons - This Heart Of Mine
TTITLE10=Falcons - Just For Your Love
TTITLE11=Paul Gayten - Beatnik Beat
TTITLE12=Ty Hunter - Orphan Boy
TTITLE13=Herman Griffin - Hurry Up And Marry Me
TTITLE14=Ruben Fort - So Good
TTITLE15=Allen (Bo) Story - Blue Moon
TTITLE16=Joe Tex - All I Could Do Was Cry (Part 1)
TTITLE17=Johnny And Jackie - Hoy Hoy
TTITLE18=Bill (Winehead Wille) Murray And George (Sweet Lucy) Copeland - The Bi
TTITLE18=g Time Spender (Part 1)
TTITLE19=Cap Tans - Tight Shirts And Crazy Sweaters
TTITLE20=Cap Tans - I'm Afraid
TTITLE21=Ty Hunter And The Voice Masters - Free
TTITLE22=Joe Tex - I'll Never Break Your Heart (Part 1)
TTITLE23=Lamont Anthony - Popeye
TTITLE24=Lamont Anthony - Benny The Skinny Man
TTITLE25=Wreg Tracey - All I Want For Christmas
TTITLE26=David Ruffin - I'm In Love
TTITLE27=Joe Tex - Ain't I A Mess
EXTD=
EXTT0=
EXTT1=
EXTT2=
EXTT3=
EXTT4=
EXTT5=
EXTT6=
EXTT7=
EXTT8=
EXTT9=
EXTT10=
EXTT11=
EXTT12=
EXTT13=
EXTT14=
EXTT15=
EXTT16=
EXTT17=
EXTT18=
EXTT19=
EXTT20=
EXTT21=
EXTT22=
EXTT23=
EXTT24=
EXTT25=
EXTT26=
EXTT27=
PLAYORDER=
